<?xml version="1.0" encoding="UTF-8" standalone="no"?>
<!-- Created with Inkscape (http://www.inkscape.org/) -->

<svg
  version="1.1"
  width="256"
  height="256"
  viewBox="0 0 256 256"
  xmlns="http://www.w3.org/2000/svg"
  xmlns:svg="http://www.w3.org/2000/svg">
  <g
    transform="translate(-2070.7913,-2068.2747)">
    <g
      transform="matrix(1.0025492,0,0,1.0143402,-2.5975171,-28.451999)"
      style="fill:#42cbdb">
      <path
        style="fill:#42cbdb;stroke-width:1.00296"
        d="m 2303.2982,2126.8705 c -31.1752,-56.1101 -97.6831,-73.8919 -156.9954,-48.3821 -59.2086,25.5873 -91.9385,86.0507 -72.644,147.2039 1.9684,4.574 3.4677,5.0397 7.8831,3.1396 l 49.6021,-21.3455 c 3.5517,-1.5284 3.6799,-4.172 3.1396,-7.8831 -5.4862,-27.7318 11.7051,-50.1376 37.7905,-61.4421 26.1631,-11.2447 54.2048,-8.29 70.5993,14.7982 2.6765,3.3911 3.6264,4.9709 7.8829,3.1392 l 49.6023,-21.3451 c 4.1765,-1.7972 4.7849,-4.0596 3.1396,-7.883" />
      <path
        style="fill:#42cbdb;stroke-width:1.00296"
        d="m 2088.2844,2259.6789 c 31.1752,56.1101 97.6831,73.8919 156.9954,48.3821 59.2086,-25.5873 91.9385,-86.0507 72.644,-147.2039 -1.9684,-4.574 -3.4677,-5.0397 -7.8831,-3.1396 l -49.6021,21.3455 c -3.5517,1.5284 -3.6799,4.172 -3.1396,7.8831 5.4862,27.7318 -11.7051,50.1376 -37.7905,61.4421 -26.1631,11.2447 -54.2048,8.29 -70.5993,-14.7982 -2.6765,-3.3911 -3.6264,-4.9709 -7.8829,-3.1392 l -49.6023,21.3451 c -4.1765,1.7972 -4.7849,4.0596 -3.1396,7.883" />
    </g>
  </g>
</svg>
